<svg width="259" height="219" viewBox="0 0 259 219" fill="none" xmlns="http://www.w3.org/2000/svg">
<path d="M134.65 94.39C134.455 94.3888 134.263 94.3408 134.09 94.25L90.5199 71.25C90.2509 71.1051 90.0474 70.8629 89.9507 70.5731C89.8541 70.2832 89.8717 69.9674 89.9999 69.69L108.9 26.37C108.967 26.2173 109.064 26.08 109.187 25.9665C109.309 25.8529 109.453 25.7657 109.61 25.71C109.772 25.6497 109.946 25.6257 110.119 25.6395C110.292 25.6533 110.459 25.7047 110.61 25.79L154.18 48.79C154.451 48.9333 154.657 49.1741 154.757 49.4636C154.858 49.7531 154.844 50.0699 154.72 50.35L135.82 93.66C135.755 93.8137 135.658 93.9519 135.535 94.0656C135.413 94.1793 135.268 94.266 135.11 94.32C134.963 94.3762 134.807 94.4 134.65 94.39ZM92.6499 69.63L134.06 91.5L152 50.41L110.58 28.54L92.6499 69.63Z" fill="white" stroke="white" stroke-miterlimit="10"/>
<path d="M153.55 51.07C153.258 51.0634 152.979 50.9516 152.763 50.7553C152.547 50.559 152.41 50.2914 152.376 50.0017C152.342 49.712 152.413 49.4197 152.578 49.1787C152.742 48.9376 152.988 48.7641 153.27 48.69L175.27 43.27L134.83 21.9L110.17 28C110.016 28.0381 109.855 28.0454 109.698 28.0215C109.541 27.9977 109.39 27.9431 109.254 27.8609C109.118 27.7787 109 27.6705 108.905 27.5426C108.811 27.4146 108.743 27.2693 108.705 27.115C108.667 26.9607 108.66 26.8004 108.683 26.6433C108.707 26.4861 108.762 26.3352 108.844 26.1992C108.926 26.0632 109.034 25.9446 109.162 25.8504C109.29 25.7562 109.436 25.6881 109.59 25.65L134.7 19.47C134.987 19.4008 135.29 19.4399 135.55 19.58L179.23 42.64C179.449 42.7541 179.627 42.9323 179.742 43.1507C179.856 43.3692 179.901 43.6174 179.871 43.8622C179.84 44.107 179.736 44.3366 179.571 44.5203C179.407 44.704 179.19 44.833 178.95 44.89L153.84 51C153.746 51.0339 153.649 51.0574 153.55 51.07Z" fill="white" stroke="white" stroke-miterlimit="10"/>
<path d="M134.65 94.39C134.354 94.3954 134.066 94.2922 133.841 94.0999C133.617 93.9076 133.47 93.6395 133.429 93.3464C133.389 93.0532 133.457 92.7553 133.621 92.5091C133.785 92.2628 134.034 92.0853 134.32 92.01L154.83 86.22L177.59 43.12C177.741 42.8359 177.998 42.623 178.305 42.5275C178.612 42.432 178.945 42.4616 179.23 42.61C179.371 42.6846 179.495 42.7863 179.597 42.9092C179.698 43.0321 179.774 43.1738 179.821 43.3261C179.867 43.4785 179.883 43.6386 179.867 43.7971C179.852 43.9556 179.805 44.1095 179.73 44.25L156.73 87.81C156.654 87.9552 156.549 88.0834 156.422 88.1866C156.295 88.2897 156.148 88.3658 155.99 88.41L134.99 94.34C134.879 94.3721 134.765 94.3889 134.65 94.39Z" fill="white" stroke="white" stroke-miterlimit="10"/>
<path d="M135.761 32.1501C136.426 30.8898 135.943 29.3292 134.683 28.6644C133.422 27.9997 131.862 28.4825 131.197 29.7428C130.532 31.0031 131.015 32.5637 132.275 33.2285C133.536 33.8932 135.096 33.4104 135.761 32.1501Z" fill="white" stroke="white" stroke-miterlimit="10"/>
<path d="M133.48 34.74H133.41C132.405 34.719 131.449 34.3014 130.75 33.5784C130.051 32.8553 129.667 31.8854 129.68 30.88C129.692 30.1311 129.925 29.4024 130.349 28.7854C130.774 28.1685 131.372 27.6908 132.067 27.4123C132.762 27.1339 133.524 27.0672 134.257 27.2205C134.991 27.3738 135.662 27.7404 136.188 28.2741C136.713 28.8079 137.069 29.485 137.211 30.2205C137.353 30.9559 137.274 31.7169 136.985 32.4077C136.695 33.0986 136.208 33.6886 135.585 34.1035C134.961 34.5185 134.229 34.7399 133.48 34.74ZM133.48 32.32C133.835 32.3203 134.176 32.1828 134.432 31.9366C134.687 31.6904 134.837 31.3546 134.85 31C134.857 30.8155 134.827 30.6313 134.76 30.4593C134.692 30.2872 134.59 30.1308 134.46 30C134.331 29.8656 134.175 29.7591 134.003 29.6868C133.831 29.6146 133.647 29.5783 133.46 29.58C133.275 29.5714 133.091 29.6016 132.919 29.6688C132.746 29.736 132.59 29.8386 132.46 29.97C132.263 30.1581 132.127 30.4005 132.069 30.6663C132.01 30.9321 132.033 31.2092 132.132 31.4624C132.232 31.7156 132.405 31.9333 132.629 32.0878C132.853 32.2423 133.118 32.3267 133.39 32.33L133.48 32.32Z" fill="white" stroke="white" stroke-miterlimit="10"/>
<path d="M154.56 71.14C154.047 71.132 153.549 70.9721 153.127 70.6804C152.706 70.3888 152.38 69.9786 152.192 69.5018C152.003 69.025 151.961 68.5031 152.069 68.002C152.178 67.501 152.432 67.0435 152.801 66.6873C153.17 66.3312 153.636 66.0925 154.141 66.0015C154.645 65.9105 155.165 65.9712 155.635 66.176C156.105 66.3808 156.504 66.7205 156.781 67.152C157.057 67.5835 157.2 68.0875 157.19 68.6C157.174 69.2843 156.889 69.9349 156.397 70.4104C155.905 70.8859 155.244 71.1481 154.56 71.14Z" fill="white" stroke="white" stroke-miterlimit="10"/>
<path d="M154.61 72.35H154.54C153.522 72.3407 152.549 71.9286 151.834 71.2039C151.119 70.4791 150.721 69.5007 150.725 68.4826C150.73 67.4646 151.137 66.4898 151.859 65.7716C152.58 65.0534 153.557 64.6501 154.575 64.6501C155.593 64.6501 156.57 65.0534 157.291 65.7716C158.013 66.4898 158.42 67.4646 158.425 68.4826C158.43 69.5007 158.031 70.4791 157.316 71.2039C156.601 71.9286 155.628 72.3407 154.61 72.35ZM154.61 67.18C154.266 67.2094 153.945 67.367 153.711 67.6216C153.477 67.8762 153.347 68.2093 153.347 68.555C153.347 68.9007 153.477 69.2338 153.711 69.4884C153.945 69.743 154.266 69.9006 154.61 69.93C154.795 69.9419 154.981 69.9132 155.153 69.8458C155.326 69.7784 155.482 69.6741 155.61 69.54C155.744 69.4107 155.851 69.2553 155.923 69.0833C155.995 68.9114 156.032 68.7265 156.03 68.54C156.038 68.3554 156.007 68.1713 155.94 67.9992C155.872 67.8271 155.771 67.6708 155.64 67.54C155.511 67.4056 155.355 67.299 155.183 67.2268C155.011 67.1546 154.827 67.1182 154.64 67.12L154.61 67.18Z" fill="white" stroke="white" stroke-miterlimit="10"/>
<path d="M147.52 83.45C147.007 83.442 146.509 83.2821 146.087 82.9904C145.665 82.6988 145.34 82.2886 145.152 81.8118C144.963 81.335 144.921 80.8131 145.029 80.312C145.138 79.811 145.392 79.3535 145.761 78.9973C146.13 78.6412 146.596 78.4025 147.101 78.3115C147.605 78.2205 148.125 78.2812 148.595 78.486C149.065 78.6908 149.464 79.0305 149.741 79.462C150.017 79.8935 150.16 80.3975 150.15 80.91C150.145 81.2497 150.073 81.585 149.937 81.8967C149.802 82.2084 149.607 82.4903 149.363 82.7263C149.118 82.9623 148.83 83.1477 148.513 83.2719C148.197 83.3961 147.86 83.4566 147.52 83.45Z" fill="white" stroke="white" stroke-miterlimit="10"/>
<path d="M147.57 84.66H147.5C146.474 84.6507 145.494 84.2355 144.773 83.5051C144.052 82.7747 143.65 81.7886 143.655 80.7626C143.66 79.7367 144.071 78.7543 144.798 78.0304C145.525 77.3065 146.509 76.9001 147.535 76.9001C148.561 76.9001 149.545 77.3065 150.272 78.0304C151 78.7543 151.41 79.7367 151.415 80.7626C151.42 81.7886 151.018 82.7747 150.297 83.5051C149.577 84.2355 148.596 84.6507 147.57 84.66ZM147.57 82.24C147.755 82.2486 147.939 82.2184 148.111 82.1512C148.284 82.084 148.44 81.9814 148.57 81.85C148.704 81.7207 148.811 81.5653 148.883 81.3933C148.955 81.2214 148.992 81.0365 148.99 80.85C148.996 80.5767 148.921 80.3078 148.773 80.0775C148.626 79.8471 148.414 79.6656 148.164 79.556C147.913 79.4463 147.636 79.4136 147.367 79.4618C147.098 79.51 146.849 79.637 146.652 79.8268C146.456 80.0165 146.32 80.2604 146.262 80.5275C146.204 80.7946 146.226 81.073 146.327 81.3272C146.427 81.5814 146.601 81.8001 146.826 81.9555C147.051 82.1109 147.317 82.196 147.59 82.2L147.57 82.24Z" fill="white" stroke="white" stroke-miterlimit="10"/>
<path d="M161.79 59.39C161.277 59.384 160.777 59.2257 160.354 58.9353C159.931 58.6448 159.604 58.2353 159.414 57.7586C159.224 57.282 159.18 56.7597 159.288 56.258C159.395 55.7563 159.649 55.2978 160.018 54.9406C160.386 54.5835 160.852 54.3438 161.357 54.252C161.862 54.1602 162.382 54.2204 162.853 54.4249C163.324 54.6295 163.723 54.9692 164 55.4009C164.277 55.8327 164.42 56.337 164.41 56.85C164.405 57.1888 164.333 57.5233 164.198 57.8344C164.064 58.1454 163.869 58.4269 163.626 58.6627C163.383 58.8986 163.095 59.0842 162.78 59.209C162.465 59.3338 162.129 59.3953 161.79 59.39Z" fill="white" stroke="white" stroke-miterlimit="10"/>
<path d="M161.83 60.6H161.77C161.018 60.59 160.285 60.3569 159.666 59.9302C159.046 59.5035 158.567 58.9025 158.289 58.2032C158.011 57.504 157.947 56.7381 158.105 56.0024C158.263 55.2668 158.636 54.5947 159.177 54.0712C159.717 53.5476 160.401 53.1963 161.141 53.0617C161.881 52.9271 162.645 53.0152 163.335 53.315C164.025 53.6147 164.61 54.1126 165.017 54.7455C165.424 55.3784 165.634 56.1178 165.62 56.87C165.616 57.3678 165.512 57.8597 165.315 58.3166C165.117 58.7735 164.83 59.1861 164.47 59.53C163.764 60.2182 162.816 60.6023 161.83 60.6ZM161.83 58.18C162.01 58.1827 162.189 58.1499 162.356 58.0834C162.523 58.017 162.676 57.9183 162.805 57.793C162.934 57.6676 163.037 57.518 163.108 57.3528C163.179 57.1876 163.218 57.0099 163.22 56.83C163.228 56.6463 163.198 56.463 163.133 56.2911C163.067 56.1192 162.968 55.9624 162.84 55.83C162.711 55.6956 162.555 55.5891 162.383 55.5169C162.211 55.4446 162.027 55.4083 161.84 55.41C161.496 55.4394 161.175 55.597 160.941 55.8516C160.707 56.1063 160.577 56.4393 160.577 56.785C160.577 57.1307 160.707 57.4638 160.941 57.7184C161.175 57.973 161.496 58.1306 161.84 58.16L161.83 58.18Z" fill="white" stroke="white" stroke-miterlimit="10"/>
<path d="M158.15 43.66C157.638 43.652 157.139 43.4921 156.717 43.2004C156.296 42.9088 155.97 42.4986 155.782 42.0218C155.593 41.545 155.551 41.0231 155.659 40.522C155.768 40.021 156.023 39.5635 156.391 39.2073C156.76 38.8512 157.226 38.6125 157.731 38.5215C158.235 38.4305 158.755 38.4912 159.225 38.696C159.695 38.9008 160.094 39.2405 160.371 39.672C160.647 40.1035 160.79 40.6075 160.78 41.12C160.775 41.4597 160.703 41.795 160.568 42.1067C160.432 42.4184 160.237 42.7003 159.993 42.9363C159.748 43.1723 159.46 43.3577 159.144 43.4819C158.827 43.6061 158.49 43.6667 158.15 43.66Z" fill="white" stroke="white" stroke-miterlimit="10"/>
<path d="M158.2 44.87H158.13C157.504 44.8622 156.889 44.6997 156.341 44.3971C155.793 44.0944 155.328 43.6609 154.987 43.1352C154.647 42.6094 154.442 42.0077 154.39 41.3836C154.339 40.7595 154.442 40.1323 154.691 39.5577C154.941 38.9832 155.328 38.4792 155.819 38.0906C156.31 37.7019 156.89 37.4407 157.506 37.3301C158.123 37.2195 158.757 37.2629 159.352 37.4565C159.948 37.6502 160.486 37.988 160.92 38.44C161.269 38.796 161.544 39.2182 161.728 39.6819C161.912 40.1456 162.001 40.6414 161.99 41.14C161.974 42.1348 161.568 43.0834 160.859 43.7813C160.15 44.4791 159.195 44.8702 158.2 44.87ZM158.2 42.45C158.384 42.4594 158.568 42.4304 158.74 42.365C158.912 42.2996 159.069 42.1991 159.2 42.07C159.333 41.9393 159.438 41.7837 159.51 41.612C159.582 41.4404 159.619 41.2562 159.62 41.07C159.625 40.8857 159.593 40.7023 159.526 40.5306C159.459 40.3588 159.358 40.2022 159.23 40.07C159.101 39.936 158.945 39.8303 158.773 39.7597C158.601 39.6891 158.416 39.6552 158.23 39.66C158.05 39.6567 157.871 39.6889 157.704 39.7547C157.536 39.8206 157.383 39.9187 157.254 40.0436C157.124 40.1685 157.021 40.3177 156.949 40.4827C156.877 40.6476 156.838 40.8251 156.835 41.005C156.832 41.1849 156.864 41.3637 156.93 41.5312C156.996 41.6987 157.094 41.8516 157.219 41.9811C157.343 42.1106 157.493 42.2143 157.658 42.2862C157.823 42.3581 158 42.3967 158.18 42.4L158.2 42.45Z" fill="white" stroke="white" stroke-miterlimit="10"/>
<path d="M135.62 59C135.107 58.992 134.609 58.832 134.187 58.5404C133.766 58.2488 133.44 57.8386 133.252 57.3618C133.063 56.885 133.021 56.363 133.129 55.862C133.238 55.361 133.493 54.9034 133.861 54.5473C134.23 54.1912 134.696 53.9525 135.201 53.8615C135.705 53.7704 136.225 53.8312 136.695 54.036C137.165 54.2408 137.564 54.5805 137.841 55.012C138.117 55.4435 138.26 55.9474 138.25 56.46C138.237 57.1452 137.953 57.7972 137.46 58.2733C136.967 58.7494 136.305 59.0107 135.62 59Z" fill="white" stroke="white" stroke-miterlimit="10"/>
<path d="M135.67 60.25H135.6C134.723 60.2337 133.879 59.9139 133.212 59.3452C132.545 58.7764 132.095 57.9939 131.94 57.1308C131.785 56.2678 131.934 55.3777 132.362 54.6122C132.789 53.8467 133.469 53.2532 134.285 52.9328C135.102 52.6124 136.004 52.5848 136.838 52.8549C137.672 53.125 138.387 53.676 138.86 54.414C139.334 55.152 139.537 56.0314 139.435 56.9023C139.332 57.7731 138.931 58.5816 138.3 59.19C137.596 59.8749 136.652 60.2556 135.67 60.25ZM135.67 55.09C135.486 55.083 135.303 55.1131 135.131 55.1784C134.96 55.2436 134.803 55.3428 134.67 55.47C134.537 55.6007 134.432 55.7564 134.36 55.928C134.288 56.0996 134.251 56.2838 134.25 56.47C134.245 56.8343 134.384 57.186 134.636 57.4482C134.889 57.7105 135.236 57.8621 135.6 57.87C135.784 57.8793 135.968 57.8504 136.14 57.785C136.312 57.7196 136.469 57.6191 136.6 57.49C136.797 57.3019 136.933 57.0595 136.991 56.7937C137.05 56.5279 137.027 56.2508 136.928 55.9976C136.828 55.7444 136.655 55.5267 136.431 55.3722C136.207 55.2177 135.942 55.1334 135.67 55.13V55.09Z" fill="white" stroke="white" stroke-miterlimit="10"/>
<path d="M125 53.41C124.49 53.4001 123.995 53.2393 123.576 52.9481C123.158 52.6569 122.835 52.2482 122.649 51.7737C122.462 51.2991 122.421 50.78 122.529 50.2819C122.638 49.7837 122.891 49.3288 123.258 48.9747C123.625 48.6205 124.088 48.3829 124.59 48.2919C125.091 48.2009 125.609 48.2606 126.076 48.4634C126.544 48.6661 126.941 49.0029 127.218 49.4313C127.494 49.8596 127.638 50.3602 127.63 50.87C127.626 51.2101 127.555 51.546 127.42 51.8583C127.285 52.1706 127.09 52.4531 126.845 52.6893C126.601 52.9256 126.312 53.1109 125.995 53.2347C125.678 53.3584 125.34 53.418 125 53.41Z" fill="white" stroke="white" stroke-miterlimit="10"/>
<path d="M125 54.62H124.93C124.432 54.6122 123.94 54.506 123.483 54.3076C123.026 54.1091 122.613 53.8223 122.267 53.4635C121.922 53.1048 121.65 52.6813 121.469 52.2173C121.287 51.7534 121.199 51.2581 121.21 50.76C121.215 50.2624 121.32 49.7709 121.517 49.3141C121.714 48.8574 122.001 48.4446 122.36 48.1C122.807 47.6701 123.352 47.3563 123.947 47.1859C124.543 47.0156 125.172 46.9941 125.778 47.1231C126.384 47.2522 126.95 47.5279 127.425 47.9262C127.899 48.3245 128.269 48.8331 128.502 49.4076C128.735 49.9821 128.823 50.6048 128.759 51.2213C128.695 51.8378 128.481 52.4291 128.135 52.9436C127.789 53.458 127.323 53.8799 126.776 54.1722C126.23 54.4644 125.62 54.6182 125 54.62ZM125 52.2C125.36 52.2001 125.705 52.0585 125.962 51.8059C126.218 51.5532 126.365 51.2099 126.37 50.85C126.378 50.6662 126.349 50.4827 126.283 50.3108C126.218 50.1388 126.118 49.982 125.99 49.85C125.862 49.7137 125.707 49.6058 125.535 49.5335C125.363 49.4611 125.177 49.4258 124.99 49.43C124.806 49.4236 124.623 49.4539 124.452 49.5192C124.28 49.5844 124.123 49.6833 123.99 49.81C123.782 50.0028 123.639 50.2549 123.579 50.532C123.52 50.8092 123.547 51.0979 123.657 51.3591C123.768 51.6202 123.956 51.841 124.196 51.9914C124.436 52.1419 124.717 52.2147 125 52.2Z" fill="white" stroke="white" stroke-miterlimit="10"/>
<path d="M114.31 47.78C113.799 47.772 113.303 47.6126 112.883 47.3221C112.463 47.0316 112.138 46.6229 111.951 46.148C111.763 45.673 111.721 45.153 111.829 44.654C111.937 44.1549 112.191 43.6991 112.558 43.3444C112.926 42.9896 113.39 42.7519 113.893 42.6613C114.395 42.5706 114.913 42.6312 115.381 42.8352C115.85 43.0393 116.247 43.3777 116.522 43.8075C116.798 44.2374 116.94 44.7394 116.93 45.25C116.925 45.5884 116.853 45.9224 116.718 46.2328C116.584 46.5433 116.389 46.8241 116.146 47.0592C115.902 47.2943 115.615 47.479 115.3 47.6027C114.985 47.7263 114.648 47.7866 114.31 47.78Z" fill="white" stroke="white" stroke-miterlimit="10"/>
<path d="M114.35 49H114.28C113.782 48.9949 113.291 48.8906 112.834 48.6931C112.377 48.4956 111.965 48.209 111.62 47.85C110.925 47.1232 110.545 46.1518 110.562 45.1465C110.579 44.1412 110.991 43.1831 111.71 42.48C112.442 41.7885 113.413 41.4084 114.42 41.42C114.919 41.4265 115.411 41.5318 115.868 41.7298C116.326 41.9278 116.74 42.2146 117.086 42.5736C117.432 42.9326 117.703 43.3566 117.884 43.8212C118.065 44.2857 118.152 44.7816 118.14 45.28C118.136 45.7754 118.033 46.2649 117.837 46.72C117.642 47.1751 117.357 47.5864 117 47.93C116.291 48.6197 115.339 49.0039 114.35 49ZM114.35 46.58C114.53 46.5826 114.709 46.5498 114.876 46.4834C115.043 46.417 115.196 46.3183 115.325 46.1929C115.454 46.0676 115.557 45.918 115.628 45.7528C115.699 45.5876 115.737 45.4099 115.74 45.23C115.748 45.0462 115.719 44.8627 115.653 44.6908C115.588 44.5188 115.488 44.362 115.36 44.23C115.172 44.0333 114.93 43.8971 114.664 43.8388C114.398 43.7804 114.121 43.8025 113.868 43.9023C113.615 44.0021 113.397 44.175 113.242 44.399C113.088 44.623 113.003 44.8879 113 45.16C112.994 45.3435 113.025 45.5264 113.09 45.698C113.155 45.8697 113.254 46.0267 113.38 46.16C113.51 46.2931 113.666 46.3981 113.838 46.4686C114.01 46.5391 114.194 46.5736 114.38 46.57L114.35 46.58Z" fill="white" stroke="white" stroke-miterlimit="10"/>
<path d="M126.33 76.63C125.822 76.6122 125.331 76.4449 124.918 76.1491C124.505 75.8532 124.188 75.442 124.008 74.967C123.828 74.492 123.792 73.9743 123.905 73.4789C124.017 72.9835 124.274 72.5325 124.642 72.1823C125.01 71.8321 125.473 71.5984 125.974 71.5105C126.474 71.4226 126.99 71.4844 127.455 71.6881C127.92 71.8918 128.315 72.2285 128.59 72.6557C128.865 73.083 129.008 73.582 129 74.09C128.994 74.4327 128.919 74.7708 128.781 75.0845C128.643 75.3983 128.444 75.6815 128.196 75.9178C127.947 76.154 127.655 76.3386 127.334 76.4609C127.014 76.5832 126.673 76.6406 126.33 76.63Z" fill="white" stroke="white" stroke-miterlimit="10"/>
<path d="M126.38 77.84H126.31C125.812 77.8361 125.32 77.7322 124.863 77.5347C124.406 77.3372 123.994 77.0499 123.65 76.69C123.302 76.332 123.029 75.9089 122.845 75.4449C122.662 74.981 122.571 74.4853 122.58 73.9863C122.588 73.4874 122.695 72.995 122.894 72.5375C123.093 72.0799 123.381 71.6662 123.74 71.32C124.466 70.6264 125.436 70.2457 126.44 70.26C127.445 70.268 128.406 70.6749 129.111 71.3913C129.816 72.1077 130.208 73.0749 130.2 74.08C130.192 75.0852 129.785 76.046 129.069 76.7512C128.352 77.4563 127.385 77.848 126.38 77.84ZM126.38 75.42C126.74 75.4201 127.085 75.2785 127.342 75.0259C127.598 74.7732 127.745 74.4299 127.75 74.07C127.759 73.8853 127.728 73.7009 127.661 73.5286C127.594 73.3563 127.491 73.2001 127.36 73.07C127.234 72.9316 127.079 72.8224 126.906 72.7498C126.734 72.6773 126.547 72.6432 126.36 72.65C126.176 72.6425 125.993 72.6723 125.821 72.7376C125.649 72.8029 125.492 72.9024 125.36 73.03C125.231 73.1566 125.129 73.3076 125.059 73.4741C124.989 73.6407 124.953 73.8194 124.953 74C124.953 74.1806 124.989 74.3594 125.059 74.5259C125.129 74.6925 125.231 74.8435 125.36 74.97C125.488 75.1064 125.643 75.2142 125.815 75.2866C125.988 75.359 126.173 75.3942 126.36 75.39L126.38 75.42Z" fill="white" stroke="white" stroke-miterlimit="10"/>
<path d="M115.67 71C115.16 70.99 114.664 70.829 114.245 70.5373C113.827 70.2456 113.504 69.8363 113.318 69.3612C113.132 68.8861 113.091 68.3665 113.2 67.8681C113.309 67.3697 113.564 66.9149 113.932 66.5612C114.299 66.2074 114.764 65.9707 115.266 65.8808C115.768 65.791 116.286 65.8521 116.753 66.0564C117.221 66.2607 117.617 66.5991 117.893 67.0287C118.168 67.4583 118.31 67.9599 118.3 68.47C118.295 68.8092 118.222 69.1441 118.087 69.4552C117.952 69.7664 117.756 70.0477 117.512 70.2829C117.267 70.5181 116.979 70.7025 116.663 70.8256C116.346 70.9487 116.009 71.008 115.67 71Z" fill="white" stroke="white" stroke-miterlimit="10"/>
<path d="M115.72 72.22H115.65C114.624 72.2107 113.643 71.7955 112.923 71.0651C112.202 70.3347 111.8 69.3486 111.805 68.3226C111.81 67.2966 112.22 66.3142 112.948 65.5904C113.675 64.8665 114.659 64.4601 115.685 64.4601C116.711 64.4601 117.695 64.8665 118.422 65.5904C119.149 66.3142 119.56 67.2966 119.565 68.3226C119.57 69.3486 119.168 70.3347 118.447 71.0651C117.726 71.7955 116.746 72.2107 115.72 72.22ZM115.72 67.05C115.541 67.0473 115.363 67.0803 115.197 67.1469C115.031 67.2136 114.88 67.3126 114.752 67.4382C114.625 67.5639 114.524 67.7136 114.455 67.8787C114.385 68.0438 114.35 68.221 114.35 68.4C114.344 68.5835 114.375 68.7664 114.44 68.938C114.505 69.1096 114.604 69.2667 114.73 69.4C114.86 69.533 115.015 69.6381 115.187 69.7086C115.359 69.7791 115.544 69.8136 115.73 69.81C115.914 69.8212 116.098 69.7931 116.271 69.7276C116.443 69.6621 116.6 69.5606 116.73 69.43C116.866 69.3022 116.974 69.147 117.047 68.9747C117.119 68.8024 117.154 68.6168 117.15 68.43C117.154 68.2492 117.122 68.0695 117.056 67.9011C116.99 67.7327 116.892 67.579 116.766 67.4489C116.641 67.3187 116.491 67.2147 116.325 67.1428C116.159 67.0709 115.981 67.0326 115.8 67.03L115.72 67.05Z" fill="white" stroke="white" stroke-miterlimit="10"/>
<path d="M105 65.38C104.487 65.374 103.987 65.2157 103.564 64.9252C103.141 64.6348 102.814 64.2253 102.624 63.7486C102.434 63.272 102.39 62.7497 102.498 62.248C102.605 61.7462 102.859 61.2878 103.228 60.9306C103.596 60.5735 104.062 60.3338 104.567 60.242C105.072 60.1502 105.592 60.2104 106.063 60.4149C106.534 60.6195 106.933 60.9592 107.21 61.3909C107.487 61.8227 107.63 62.327 107.62 62.84C107.615 63.1788 107.543 63.5133 107.408 63.8243C107.274 64.1354 107.079 64.4169 106.836 64.6527C106.593 64.8886 106.305 65.0742 105.99 65.199C105.675 65.3238 105.339 65.3853 105 65.38Z" fill="white" stroke="white" stroke-miterlimit="10"/>
<path d="M105.06 66.59H105C104.248 66.58 103.515 66.3469 102.896 65.9202C102.276 65.4935 101.797 64.8925 101.519 64.1932C101.241 63.494 101.177 62.728 101.335 61.9924C101.493 61.2568 101.866 60.5847 102.407 60.0612C102.947 59.5376 103.631 59.1863 104.371 59.0517C105.111 58.9171 105.875 59.0052 106.565 59.305C107.255 59.6047 107.84 60.1026 108.247 60.7355C108.654 61.3684 108.864 62.1078 108.85 62.86C108.846 63.3578 108.742 63.8497 108.545 64.3066C108.347 64.7635 108.06 65.1761 107.7 65.52C106.993 66.2064 106.046 66.5902 105.06 66.59ZM105.06 61.42C104.79 61.4202 104.526 61.4995 104.301 61.648C104.076 61.7965 103.899 62.0078 103.793 62.2558C103.686 62.5037 103.655 62.7773 103.703 63.0429C103.75 63.3085 103.874 63.5543 104.06 63.75C104.191 63.8826 104.346 63.9879 104.518 64.06C104.69 64.1321 104.874 64.1695 105.06 64.17C105.245 64.182 105.431 64.1532 105.603 64.0859C105.776 64.0185 105.932 63.9141 106.06 63.78C106.197 63.653 106.306 63.498 106.378 63.3255C106.451 63.153 106.486 62.967 106.48 62.78C106.488 62.5963 106.458 62.413 106.393 62.2411C106.327 62.0692 106.228 61.9124 106.1 61.78C105.971 61.6456 105.815 61.5391 105.643 61.4668C105.471 61.3946 105.287 61.3583 105.1 61.36L105.06 61.42Z" fill="white" stroke="white" stroke-miterlimit="10"/>
<path d="M29.9101 115C30.6927 115.371 31.3473 115.967 31.7906 116.711C32.234 117.456 32.4461 118.315 32.4001 119.18C32.4313 119.707 32.3431 120.234 32.1423 120.723C31.9415 121.211 31.6331 121.647 31.2401 122C30.3953 122.688 29.3285 123.043 28.2401 123C27.4965 123.026 26.7581 122.868 26.0901 122.54C26.2934 121.757 26.3909 120.949 26.3801 120.14C26.4374 119.219 26.18 118.306 25.6501 117.55C25.3674 117.224 25.0116 116.97 24.6118 116.809C24.212 116.647 23.7797 116.582 23.3501 116.62C22.5582 116.576 21.7802 116.841 21.1801 117.36C20.9022 117.634 20.6862 117.963 20.5465 118.327C20.4068 118.691 20.3466 119.081 20.3701 119.47C20.3571 120.362 20.6151 121.238 21.1101 121.98C21.6134 122.712 22.2393 123.351 22.9601 123.87C23.6901 124.39 24.6901 125.03 25.9601 125.77C27.2092 126.498 28.4207 127.29 29.5901 128.14C30.5337 128.854 31.3343 129.74 31.9501 130.75C32.6339 131.887 32.9807 133.194 32.9501 134.52C33.0182 135.717 32.7837 136.911 32.2681 137.993C31.7524 139.075 30.9724 140.009 30.0001 140.71C27.7755 142.197 25.1332 142.933 22.4601 142.81C20.2281 142.878 18.0125 142.408 16.0001 141.44C15.1631 141.05 14.4617 140.42 13.9859 139.628C13.5101 138.837 13.2818 137.922 13.3301 137C13.3087 136.452 13.4038 135.906 13.6089 135.397C13.814 134.889 14.1245 134.43 14.5201 134.05C15.3323 133.294 16.4112 132.891 17.5201 132.93C18.2675 132.897 19.011 133.055 19.6801 133.39C19.5009 134.11 19.4037 134.848 19.3901 135.59C19.3901 138.46 20.5701 139.9 22.9501 139.9C23.9341 139.943 24.8972 139.607 25.6401 138.96C25.9789 138.641 26.244 138.253 26.4168 137.821C26.5895 137.389 26.6657 136.924 26.6401 136.46C26.6546 135.566 26.3926 134.689 25.8901 133.95C25.3865 133.21 24.757 132.563 24.0301 132.04C23.2801 131.5 22.2901 130.86 21.0301 130.12C19.7841 129.392 18.5759 128.601 17.4101 127.75C16.4614 127.041 15.6599 126.155 15.0501 125.14C14.3706 124.016 14.0238 122.723 14.0501 121.41C14.0079 119.906 14.4767 118.433 15.3801 117.23C16.3172 116.035 17.5716 115.127 19.0001 114.61C20.5364 113.999 22.1769 113.694 23.8301 113.71C25.9308 113.647 28.016 114.089 29.9101 115Z" fill="white"/>
<path d="M52.6401 122.87C54.3101 124.87 55.1501 127.56 55.1501 131.04C55.1501 134.52 54.3101 137.49 52.6201 139.62C50.9301 141.75 48.4501 142.81 45.1601 142.81C41.8701 142.81 39.4101 141.81 37.7001 139.74C35.8816 137.372 34.97 134.431 35.1301 131.45C35.1301 127.92 35.9801 125.11 37.6801 123.04C39.3801 120.97 41.8701 119.93 45.1601 119.93C48.4501 119.93 51.0001 120.91 52.6401 122.87ZM47.9401 137.79C48.3992 135.638 48.6072 133.44 48.5601 131.24C48.6054 129.114 48.3836 126.991 47.9001 124.92C47.4501 123.25 46.5401 122.42 45.1601 122.42C43.7801 122.42 42.8701 123.26 42.4301 124.95C41.9392 127.009 41.714 129.123 41.7601 131.24C41.7106 133.441 41.9221 135.639 42.3901 137.79C42.8001 139.48 43.7301 140.32 45.1601 140.32C46.5901 140.32 47.5201 139.48 47.9401 137.79Z" fill="white"/>
<path d="M65.47 125.17C65.1588 126.734 65.018 128.326 65.05 129.92V141.92H58.71V120.76L63.89 120.26L64.18 123.99C64.5663 122.788 65.3222 121.738 66.34 120.99C67.3661 120.26 68.6009 119.881 69.86 119.91C70.5435 119.873 71.2274 119.974 71.8714 120.206C72.5155 120.438 73.1066 120.796 73.61 121.26C74.0931 121.75 74.4668 122.336 74.7065 122.981C74.9461 123.626 75.0461 124.314 75 125C75.0459 125.542 74.9809 126.087 74.809 126.603C74.6371 127.119 74.3618 127.594 74 128C73.5941 128.362 73.1188 128.637 72.603 128.809C72.0872 128.981 71.5417 129.046 71 129C70.6368 128.989 70.2753 128.946 69.92 128.87C69.5975 128.822 69.288 128.71 69.01 128.54C69.2188 127.84 69.3167 127.111 69.3 126.38C69.3 124.38 68.65 123.38 67.36 123.38C66.38 123.33 65.74 123.94 65.47 125.17Z" fill="white"/>
<path d="M74.9199 122.62V121.34C76.3225 120.793 77.6633 120.099 78.9199 119.27C80.1543 118.479 81.2804 117.531 82.2699 116.45H84.0599V120.76H87.8699V122.62H83.9999V137.38C83.9516 138.08 84.1191 138.778 84.4799 139.38C84.863 139.87 85.4233 140.19 86.0399 140.27C85.7518 141.001 85.2032 141.6 84.4999 141.95C83.7368 142.355 82.8839 142.562 82.0199 142.55C81.4258 142.594 80.8291 142.513 80.2678 142.313C79.7065 142.114 79.193 141.799 78.7599 141.39C77.9737 140.454 77.5795 139.25 77.6599 138.03V122.62H74.9199Z" fill="white"/>
<path d="M106.54 137.46C106.559 138.536 106.157 139.576 105.42 140.36C104.621 141.192 103.633 141.82 102.54 142.19C101.374 142.599 100.146 142.809 98.9101 142.81C95.5768 142.81 93.0701 141.81 91.3901 139.81C89.6901 137.81 88.8401 135.03 88.8401 131.52C88.8401 128.01 89.7601 125 91.6001 123C93.4401 121 96.0901 119.93 99.6001 119.93C101.564 119.854 103.503 120.389 105.15 121.46C105.87 121.965 106.45 122.644 106.835 123.435C107.22 124.226 107.397 125.102 107.35 125.98C107.35 128.44 106.47 130.14 104.73 131.08C102.507 132.123 100.063 132.607 97.6101 132.49C96.8745 132.505 96.1388 132.462 95.4101 132.36C95.3965 133.975 95.7812 135.569 96.5301 137C96.8932 137.578 97.4103 138.043 98.0232 138.344C98.6362 138.644 99.3208 138.767 100 138.7C101.139 138.713 102.26 138.423 103.25 137.86C104.227 137.292 105.014 136.446 105.51 135.43C105.868 135.624 106.158 135.921 106.342 136.284C106.526 136.647 106.595 137.057 106.54 137.46ZM96.2001 124.8C95.6574 126.638 95.3845 128.544 95.3901 130.46H96.2201C97.6274 130.579 99.0342 130.227 100.22 129.46C100.696 129.042 101.066 128.516 101.299 127.927C101.532 127.337 101.621 126.701 101.56 126.07C101.592 125.142 101.371 124.222 100.92 123.41C100.726 123.078 100.444 122.807 100.105 122.625C99.7662 122.443 99.3839 122.359 99.0001 122.38C97.6301 122.38 96.7101 123.18 96.2001 124.8Z" fill="white"/>
<path d="M120.26 142.14C119.201 142.6 118.055 142.829 116.9 142.81C114.969 142.87 113.073 142.286 111.51 141.15C110.797 140.62 110.224 139.924 109.84 139.123C109.457 138.321 109.275 137.438 109.31 136.55C109.241 135.391 109.558 134.241 110.211 133.28C110.864 132.32 111.817 131.602 112.92 131.24C115.836 130.225 118.913 129.75 122 129.84V126.23C122.057 125.202 121.872 124.174 121.46 123.23C121.24 122.878 120.923 122.596 120.547 122.419C120.171 122.242 119.752 122.176 119.34 122.23C118.912 122.204 118.484 122.27 118.084 122.424C117.683 122.577 117.321 122.815 117.02 123.12C116.44 123.793 116.143 124.663 116.19 125.55C116.219 126.222 116.303 126.891 116.44 127.55C116.177 127.72 115.88 127.829 115.57 127.87C115.214 127.936 114.852 127.969 114.49 127.97C113.491 128.009 112.505 127.725 111.68 127.16C111.312 126.895 111.016 126.542 110.821 126.133C110.625 125.724 110.535 125.273 110.56 124.82C110.56 123.24 111.45 122.037 113.23 121.21C115.247 120.335 117.432 119.911 119.63 119.97C122.63 119.97 124.81 120.57 126.22 121.75C127.63 122.93 128.34 124.94 128.34 127.75V137.75C128.327 138.428 128.425 139.104 128.63 139.75C128.829 140.339 129.173 140.869 129.63 141.29C129.274 141.709 128.806 142.018 128.28 142.18C127.701 142.381 127.093 142.486 126.48 142.49C125.579 142.52 124.688 142.295 123.91 141.84C123.226 141.425 122.723 140.768 122.5 140C122.034 140.959 121.239 141.718 120.26 142.14ZM121.26 138.62C121.799 137.631 122.064 136.516 122.03 135.39V131.91C117.937 131.91 115.89 133.4 115.89 136.38C115.85 137.299 116.122 138.204 116.66 138.95C116.922 139.284 117.26 139.549 117.647 139.724C118.034 139.898 118.457 139.975 118.88 139.95C119.357 139.969 119.829 139.855 120.245 139.62C120.66 139.385 121.001 139.039 121.23 138.62H121.26Z" fill="white"/>
<path d="M151.63 139.78C151.829 140.369 152.173 140.899 152.63 141.32C152.274 141.74 151.806 142.048 151.28 142.21C150.701 142.412 150.093 142.516 149.48 142.52C148.579 142.55 147.688 142.325 146.91 141.87C146.226 141.455 145.723 140.798 145.5 140.03C144.995 140.955 144.201 141.688 143.24 142.12C142.208 142.592 141.084 142.827 139.95 142.81C138.725 142.9 137.499 142.647 136.409 142.081C135.32 141.514 134.409 140.655 133.78 139.6C132.403 137.036 131.743 134.148 131.87 131.24C131.87 127.68 132.727 124.903 134.44 122.91C136.15 120.91 138.72 119.91 142.15 119.91C143.114 119.89 144.076 120.001 145.01 120.24V112.87L151.35 112.2V137.73C151.328 138.424 151.423 139.117 151.63 139.78ZM142 122.42C141.315 122.4 140.646 122.631 140.12 123.069C139.593 123.507 139.245 124.123 139.14 124.8C138.649 126.842 138.427 128.94 138.48 131.04C138.437 133.154 138.665 135.264 139.16 137.32C139.62 138.99 140.55 139.82 141.96 139.82C142.426 139.839 142.888 139.725 143.292 139.491C143.695 139.257 144.024 138.914 144.24 138.5C144.767 137.503 145.025 136.387 144.99 135.26V123.41C144.122 122.774 143.076 122.428 142 122.42Z" fill="white"/>
<path d="M172.74 122.87C174.41 124.87 175.25 127.56 175.25 131.04C175.25 134.52 174.41 137.49 172.72 139.62C171.03 141.75 168.55 142.81 165.26 142.81C161.97 142.81 159.51 141.81 157.8 139.74C155.981 137.372 155.07 134.431 155.23 131.45C155.23 127.92 156.08 125.11 157.78 123.04C159.48 120.97 161.97 119.93 165.26 119.93C168.55 119.93 171.07 120.91 172.74 122.87ZM168 137.79C168.459 135.638 168.667 133.44 168.62 131.24C168.665 129.114 168.444 126.991 167.96 124.92C167.51 123.25 166.6 122.42 165.22 122.42C163.84 122.42 162.93 123.26 162.49 124.95C161.999 127.009 161.774 129.123 161.82 131.24C161.773 133.44 161.981 135.638 162.44 137.79C162.86 139.48 163.78 140.32 165.22 140.32C166.66 140.32 167.62 139.48 168 137.79Z" fill="white"/>
<path d="M185.57 125.17C185.259 126.734 185.118 128.326 185.15 129.92V141.92H178.81V120.76L183.99 120.26L184.28 123.99C184.666 122.788 185.422 121.738 186.44 120.99C187.466 120.26 188.701 119.881 189.96 119.91C190.644 119.873 191.327 119.974 191.972 120.206C192.616 120.438 193.207 120.796 193.71 121.26C194.193 121.75 194.567 122.336 194.807 122.981C195.046 123.626 195.146 124.314 195.1 125C195.146 125.542 195.081 126.087 194.909 126.603C194.737 127.119 194.462 127.594 194.1 128C193.701 128.354 193.236 128.625 192.731 128.797C192.226 128.969 191.692 129.038 191.16 129C190.797 128.989 190.435 128.946 190.08 128.87C189.757 128.824 189.447 128.712 189.17 128.54C189.374 127.839 189.472 127.11 189.46 126.38C189.46 124.38 188.81 123.38 187.51 123.38C186.48 123.33 185.84 123.94 185.57 125.17Z" fill="white"/>
<path d="M223.07 139.78C223.274 140.367 223.617 140.895 224.07 141.32C223.712 141.737 223.245 142.046 222.72 142.21C222.141 142.412 221.533 142.516 220.92 142.52C220.019 142.55 219.128 142.325 218.35 141.87C217.666 141.455 217.163 140.798 216.94 140.03C216.433 140.953 215.64 141.686 214.68 142.12C213.648 142.591 212.524 142.826 211.39 142.81C210.164 142.901 208.936 142.649 207.845 142.082C206.753 141.515 205.841 140.656 205.21 139.6C203.841 137.033 203.185 134.146 203.31 131.24C203.31 127.68 204.163 124.903 205.87 122.91C207.59 120.91 210.16 119.91 213.58 119.91C214.544 119.889 215.506 120 216.44 120.24V112.87L222.78 112.2V137.73C222.766 138.424 222.864 139.117 223.07 139.78ZM213.46 122.42C212.775 122.398 212.105 122.628 211.578 123.066C211.05 123.505 210.703 124.122 210.6 124.8C209.707 128.926 209.707 133.194 210.6 137.32C211.06 138.99 211.99 139.82 213.4 139.82C213.866 139.839 214.328 139.725 214.732 139.491C215.135 139.257 215.464 138.914 215.68 138.5C216.199 137.501 216.454 136.385 216.42 135.26V123.41C215.561 122.778 214.526 122.432 213.46 122.42Z" fill="white"/>
<path d="M244.38 137.46C244.399 138.536 243.997 139.576 243.26 140.36C242.46 141.192 241.473 141.82 240.38 142.19C239.213 142.599 237.986 142.809 236.75 142.81C233.43 142.81 230.93 141.81 229.23 139.81C227.53 137.81 226.68 135.03 226.68 131.52C226.68 128.01 227.6 125.07 229.43 123.03C231.26 120.99 233.93 119.96 237.43 119.96C239.397 119.883 241.339 120.417 242.99 121.49C243.709 121.995 244.288 122.675 244.671 123.466C245.054 124.257 245.229 125.133 245.18 126.01C245.18 128.47 244.31 130.17 242.57 131.11C240.343 132.153 237.896 132.637 235.44 132.52C234.708 132.535 233.975 132.492 233.25 132.39C233.241 134.01 233.633 135.608 234.39 137.04C234.747 137.609 235.255 138.068 235.856 138.366C236.458 138.664 237.131 138.79 237.8 138.73C238.942 138.743 240.067 138.453 241.06 137.89C242.037 137.322 242.824 136.476 243.32 135.46C243.678 135.647 243.971 135.939 244.16 136.296C244.349 136.653 244.426 137.059 244.38 137.46ZM234 124.8C233.456 126.637 233.187 128.544 233.2 130.46H234.02C235.427 130.58 236.835 130.228 238.02 129.46C238.502 129.046 238.877 128.522 239.112 127.931C239.347 127.341 239.436 126.702 239.37 126.07C239.402 125.142 239.181 124.222 238.73 123.41C238.54 123.069 238.259 122.789 237.918 122.6C237.577 122.41 237.189 122.321 236.8 122.34C235.46 122.38 234.54 123.18 234 124.8Z" fill="white"/>
<path d="M26.86 160.83L33.24 185.76H26.86L25.42 179.6H18.42L17 185.76H12.46L19.34 160.83H26.86ZM19.15 176.62H24.74L21.91 164.53L19.15 176.62Z" fill="white"/>
<path d="M35.3899 166.49L40.1099 166.04L40.3799 169.44C41.3266 166.973 43.3032 165.74 46.3099 165.74C47.5321 165.682 48.7465 165.963 49.8199 166.55C50.7404 167.117 51.4445 167.976 51.8199 168.99C52.8199 166.817 54.6566 165.733 57.3299 165.74C59.4999 165.74 61.0299 166.33 61.9399 167.51C62.9544 169.094 63.4313 170.963 63.2999 172.84V182C63.2894 182.626 63.3772 183.251 63.5599 183.85C63.741 184.386 64.0539 184.867 64.4699 185.25C64.1342 185.638 63.6929 185.919 63.1999 186.06C62.6591 186.245 62.0915 186.34 61.5199 186.34C60.9784 186.382 60.434 186.315 59.9188 186.143C59.4036 185.972 58.9279 185.698 58.5199 185.34C58.1581 184.934 57.8828 184.459 57.7108 183.943C57.5389 183.427 57.4739 182.882 57.5199 182.34V173.12C57.5642 171.985 57.4223 170.85 57.0999 169.76C56.9659 169.378 56.7053 169.054 56.3615 168.841C56.0176 168.628 55.6112 168.54 55.2099 168.59C54.6855 168.564 54.1686 168.724 53.7512 169.042C53.3338 169.361 53.0428 169.817 52.9299 170.33C52.5228 171.777 52.3374 173.277 52.3799 174.78V185.78H46.5699V173.14C46.6135 171.999 46.4751 170.858 46.1599 169.76C46.0076 169.369 45.7263 169.042 45.3625 168.833C44.9987 168.623 44.5744 168.545 44.1599 168.61C43.6212 168.571 43.0854 168.719 42.6429 169.028C42.2003 169.338 41.8779 169.791 41.7299 170.31C41.2928 171.765 41.0935 173.281 41.1399 174.8V185.8H35.3899V166.49Z" fill="white"/>
<path d="M73 158.67C73.3006 158.907 73.5407 159.212 73.7006 159.559C73.8605 159.907 73.9357 160.288 73.92 160.67C73.9335 161.06 73.8491 161.448 73.6744 161.797C73.4997 162.147 73.2404 162.447 72.92 162.67C72.1703 163.161 71.2857 163.406 70.39 163.37C69.5132 163.405 68.6481 163.16 67.92 162.67C67.6023 162.456 67.344 162.165 67.1691 161.824C66.9943 161.483 66.9086 161.103 66.92 160.72C66.9046 160.321 66.9878 159.924 67.1622 159.565C67.3366 159.206 67.5969 158.895 67.92 158.66C68.6692 158.148 69.5636 157.892 70.47 157.93C71.3728 157.884 72.2645 158.145 73 158.67ZM73.2 182C73.1881 182.627 73.2794 183.252 73.47 183.85C73.6471 184.385 73.9567 184.867 74.37 185.25C74.0382 185.637 73.6002 185.919 73.11 186.06C72.5689 186.244 72.0015 186.338 71.43 186.34C70.8886 186.381 70.3445 186.313 69.8295 186.142C69.3144 185.97 68.8387 185.697 68.43 185.34C68.0682 184.934 67.7929 184.459 67.621 183.943C67.449 183.427 67.3841 182.882 67.43 182.34V166.49H73.2V182Z" fill="white"/>
<path d="M87.78 190C88.2903 189.163 88.5953 188.217 88.67 187.24C88.78 186.14 88.84 184.68 88.84 182.84V181.67C88.3027 182.377 87.5739 182.915 86.74 183.22C85.8268 183.552 84.8616 183.718 83.89 183.71C82.8615 183.789 81.8295 183.611 80.8868 183.192C79.9442 182.773 79.1205 182.126 78.49 181.31C77.238 179.389 76.6287 177.12 76.75 174.83C76.75 171.89 77.52 169.63 79.06 168.07C80.6 166.51 82.82 165.73 85.74 165.73C87.1749 165.711 88.6003 165.966 89.94 166.48L94.36 165.88V181.93C94.4161 184.068 94.1463 186.203 93.56 188.26C93.1026 189.798 92.1138 191.123 90.77 192C89.0736 192.94 87.1468 193.384 85.21 193.28C83.4468 193.312 81.7003 192.932 80.11 192.17C79.4441 191.894 78.8764 191.424 78.4806 190.821C78.0848 190.219 77.879 189.511 77.89 188.79C77.8622 188.375 77.9392 187.96 78.1139 187.582C78.2887 187.205 78.5556 186.877 78.89 186.63C79.6546 186.129 80.5569 185.881 81.47 185.92C82.0873 185.856 82.7092 185.986 83.25 186.29C83.111 186.884 83.0273 187.49 83 188.1C82.9556 188.884 83.1699 189.66 83.61 190.31C83.8353 190.589 84.1252 190.808 84.4546 190.949C84.7839 191.091 85.1428 191.149 85.5 191.12C85.9455 191.154 86.3919 191.068 86.7929 190.871C87.1938 190.674 87.5347 190.373 87.78 190ZM85.86 168C85.2918 167.97 84.7309 168.139 84.2744 168.479C83.8179 168.819 83.4945 169.307 83.36 169.86C82.9184 171.403 82.716 173.005 82.76 174.61C82.7176 176.169 82.92 177.724 83.36 179.22C83.502 179.755 83.8244 180.224 84.2727 180.548C84.721 180.873 85.2676 181.032 85.82 181C86.2504 181.021 86.6775 180.916 87.0488 180.697C87.4201 180.479 87.7195 180.156 87.91 179.77C88.3753 178.84 88.6053 177.81 88.58 176.77V168.87C87.7896 168.297 86.8363 167.992 85.86 168Z" fill="white"/>
<path d="M113.71 168.42C115.243 170.213 116.007 172.693 116 175.86C116.147 178.654 115.331 181.414 113.69 183.68C112.869 184.667 111.825 185.445 110.645 185.951C109.465 186.457 108.181 186.676 106.9 186.59C105.628 186.674 104.354 186.465 103.175 185.98C101.996 185.495 100.944 184.745 100.1 183.79C98.4355 181.637 97.6013 178.957 97.7501 176.24C97.6028 173.489 98.4276 170.774 100.08 168.57C101.633 166.683 103.907 165.74 106.9 165.74C109.893 165.74 112.163 166.633 113.71 168.42ZM109.43 182C109.846 180.028 110.034 178.015 109.99 176C110.032 174.062 109.831 172.127 109.39 170.24C108.99 168.72 108.15 167.95 106.9 167.95C105.65 167.95 104.8 168.72 104.4 170.26C103.962 172.141 103.76 174.069 103.8 176C103.756 178.015 103.944 180.028 104.36 182C104.74 183.53 105.59 184.3 106.9 184.3C108.21 184.3 109.05 183.55 109.43 182Z" fill="white"/>
<path d="M139.49 161.24C140.204 161.581 140.8 162.126 141.204 162.806C141.608 163.486 141.802 164.27 141.76 165.06C141.786 165.54 141.705 166.021 141.522 166.465C141.338 166.91 141.057 167.308 140.7 167.63C139.92 168.256 138.939 168.576 137.94 168.53C137.25 168.557 136.564 168.416 135.94 168.12C136.122 167.405 136.21 166.668 136.2 165.93C136.251 165.092 136.019 164.26 135.54 163.57C135.284 163.273 134.961 163.041 134.597 162.894C134.234 162.746 133.841 162.686 133.45 162.72C132.72 162.677 132.002 162.921 131.45 163.4C131.198 163.649 131.002 163.949 130.876 164.28C130.75 164.612 130.697 164.966 130.72 165.32C130.704 166.135 130.941 166.936 131.4 167.61C131.852 168.28 132.421 168.863 133.08 169.33C133.74 169.81 134.66 170.33 135.82 171.06C136.956 171.723 138.058 172.444 139.12 173.22C139.981 173.87 140.711 174.677 141.27 175.6C141.889 176.635 142.198 177.825 142.16 179.03C142.228 180.117 142.022 181.205 141.561 182.192C141.099 183.179 140.398 184.034 139.52 184.68C137.487 186.029 135.078 186.698 132.64 186.59C130.598 186.654 128.571 186.225 126.73 185.34C125.982 184.982 125.355 184.412 124.929 183.701C124.502 182.99 124.294 182.169 124.33 181.34C124.309 180.842 124.395 180.346 124.581 179.884C124.768 179.422 125.05 179.004 125.41 178.66C126.156 177.978 127.14 177.619 128.15 177.66C128.841 177.621 129.53 177.763 130.15 178.07C129.995 178.726 129.908 179.396 129.89 180.07C129.89 182.69 130.97 183.99 133.14 183.99C134.035 184.03 134.912 183.726 135.59 183.14C135.915 182.858 136.174 182.507 136.347 182.113C136.52 181.718 136.603 181.29 136.59 180.86C136.602 180.045 136.365 179.246 135.91 178.57C135.446 177.901 134.871 177.316 134.21 176.84C133.53 176.35 132.62 175.76 131.49 175.08C130.13 174.27 129.03 173.56 128.18 172.93C127.305 172.266 126.566 171.441 126 170.5C125.39 169.473 125.081 168.294 125.11 167.1C125.072 165.727 125.498 164.381 126.32 163.28C127.161 162.204 128.277 161.375 129.55 160.88C130.951 160.33 132.445 160.055 133.95 160.07C135.864 160.012 137.763 160.414 139.49 161.24Z" fill="white"/>
<path d="M160.38 181.72C160.404 182.697 160.045 183.644 159.38 184.36C158.651 185.119 157.748 185.688 156.75 186.02C155.691 186.398 154.574 186.591 153.45 186.59C150.43 186.59 148.143 185.67 146.59 183.83C144.938 181.672 144.115 178.993 144.27 176.28C144.27 172.947 145.107 170.363 146.78 168.53C148.453 166.697 150.877 165.767 154.05 165.74C155.844 165.667 157.617 166.157 159.12 167.14C159.775 167.598 160.303 168.216 160.653 168.936C161.003 169.655 161.164 170.451 161.12 171.25C161.12 173.49 160.32 175.04 158.74 175.9C156.71 176.85 154.479 177.29 152.24 177.18C151.571 177.195 150.903 177.158 150.24 177.07C150.218 178.541 150.561 179.995 151.24 181.3C151.565 181.82 152.028 182.239 152.577 182.513C153.125 182.786 153.739 182.903 154.35 182.85C155.401 182.865 156.436 182.599 157.35 182.08C158.241 181.56 158.958 180.788 159.41 179.86C159.741 180.035 160.011 180.307 160.184 180.639C160.357 180.971 160.426 181.348 160.38 181.72ZM151 170.18C150.499 171.85 150.249 173.586 150.26 175.33H151C152.266 175.443 153.534 175.138 154.61 174.46C155.05 174.083 155.391 173.605 155.605 173.067C155.82 172.528 155.9 171.946 155.84 171.37C155.867 170.525 155.663 169.688 155.25 168.95C155.082 168.635 154.829 168.374 154.519 168.197C154.21 168.02 153.856 167.935 153.5 167.95C152.26 168 151.42 168.7 151 170.18Z" fill="white"/>
<path d="M169 176C168.93 177.71 169.227 179.414 169.87 181C170.16 181.608 170.631 182.112 171.218 182.443C171.805 182.774 172.479 182.916 173.15 182.85C174.117 182.878 175.066 182.586 175.85 182.02C176.622 181.423 177.196 180.607 177.5 179.68C177.906 179.803 178.259 180.061 178.5 180.41C178.731 180.763 178.85 181.178 178.84 181.6C178.867 182.586 178.529 183.548 177.89 184.3C177.235 185.07 176.391 185.656 175.44 186C174.416 186.394 173.327 186.594 172.23 186.59C169.21 186.59 166.923 185.67 165.37 183.83C163.835 181.572 163.026 178.899 163.051 176.168C163.076 173.438 163.934 170.78 165.51 168.55C167.137 166.677 169.527 165.74 172.68 165.74C174.326 165.677 175.96 166.046 177.42 166.81C178.026 167.152 178.523 167.658 178.854 168.27C179.185 168.882 179.336 169.576 179.29 170.27C179.32 170.684 179.244 171.098 179.069 171.475C178.894 171.851 178.626 172.176 178.29 172.42C177.52 172.926 176.611 173.177 175.69 173.14C175.355 173.14 175.02 173.11 174.69 173.05C174.415 173.009 174.153 172.911 173.92 172.76C174.051 172.178 174.128 171.586 174.15 170.99C174.15 168.99 173.47 167.99 172.15 167.99C170.05 167.997 169 170.667 169 176Z" fill="white"/>
<path d="M188.18 170.52C187.9 171.942 187.773 173.391 187.8 174.84V185.76H182V166.49L186.72 166.04L186.99 169.44C187.355 168.346 188.055 167.395 188.99 166.72C189.926 166.052 191.051 165.702 192.2 165.72C192.823 165.697 193.445 165.798 194.029 166.017C194.613 166.237 195.147 166.571 195.6 167C196.032 167.438 196.367 167.962 196.586 168.537C196.804 169.112 196.901 169.726 196.87 170.34C196.896 170.837 196.82 171.335 196.648 171.802C196.476 172.27 196.212 172.698 195.87 173.06C195.51 173.389 195.087 173.642 194.626 173.804C194.165 173.965 193.677 174.032 193.19 174C192.854 173.994 192.519 173.957 192.19 173.89C191.897 173.843 191.615 173.742 191.36 173.59C191.546 172.94 191.634 172.266 191.62 171.59C191.62 169.76 191.03 168.84 189.85 168.84C188.99 168.84 188.433 169.4 188.18 170.52Z" fill="white"/>
<path d="M213.86 181.72C213.884 182.697 213.525 183.644 212.86 184.36C212.135 185.119 211.235 185.688 210.24 186.02C209.178 186.399 208.058 186.592 206.93 186.59C203.91 186.59 201.627 185.67 200.08 183.83C198.425 181.673 197.598 178.994 197.75 176.28C197.75 172.947 198.59 170.363 200.27 168.53C201.95 166.697 204.373 165.767 207.54 165.74C209.331 165.666 211.101 166.156 212.6 167.14C213.255 167.598 213.783 168.216 214.133 168.936C214.483 169.655 214.644 170.451 214.6 171.25C214.6 173.49 213.807 175.04 212.22 175.9C210.19 176.852 207.959 177.291 205.72 177.18C205.051 177.194 204.383 177.158 203.72 177.07C203.703 178.541 204.046 179.993 204.72 181.3C205.048 181.82 205.512 182.239 206.063 182.512C206.613 182.786 207.228 182.903 207.84 182.85C208.891 182.867 209.927 182.601 210.84 182.08C211.734 181.563 212.451 180.79 212.9 179.86C213.231 180.035 213.5 180.307 213.672 180.639C213.844 180.972 213.909 181.349 213.86 181.72ZM204.44 170.18C203.944 171.851 203.694 173.586 203.7 175.33H204.46C205.726 175.442 206.994 175.136 208.07 174.46C208.506 174.081 208.845 173.602 209.058 173.064C209.27 172.526 209.35 171.945 209.29 171.37C209.321 170.526 209.12 169.689 208.71 168.95C208.54 168.635 208.284 168.374 207.973 168.198C207.662 168.021 207.307 167.935 206.95 167.95C205.74 168 204.91 168.7 204.44 170.18Z" fill="white"/>
<path d="M215.6 168.19V167C216.888 166.51 218.115 165.876 219.26 165.11C220.391 164.399 221.42 163.537 222.32 162.55H224V166.47H227.47V168.17H223.96V181.62C223.918 182.246 224.068 182.871 224.39 183.41C224.737 183.86 225.247 184.155 225.81 184.23C225.546 184.894 225.048 185.438 224.41 185.76C223.713 186.125 222.937 186.31 222.15 186.3C221.608 186.351 221.061 186.288 220.545 186.116C220.028 185.944 219.553 185.666 219.15 185.3C218.432 184.448 218.074 183.351 218.15 182.24V168.24L215.6 168.19Z" fill="white"/>
<path d="M244.25 168.42C245.883 170.544 246.696 173.185 246.54 175.86C246.687 178.654 245.871 181.414 244.23 183.68C242.703 185.62 240.437 186.59 237.43 186.59C236.158 186.673 234.884 186.464 233.705 185.979C232.527 185.494 231.475 184.745 230.63 183.79C228.973 181.634 228.143 178.955 228.29 176.24C228.145 173.491 228.966 170.778 230.61 168.57C232.16 166.68 234.44 165.74 237.43 165.74C240.42 165.74 242.73 166.63 244.25 168.42ZM240 182C240.425 180.029 240.617 178.015 240.57 176C240.612 174.062 240.411 172.127 239.97 170.24C239.56 168.72 238.73 167.95 237.47 167.95C236.21 167.95 235.38 168.72 234.98 170.26C234.542 172.141 234.34 174.069 234.38 176C234.331 178.015 234.519 180.029 234.94 182C235.32 183.53 236.16 184.3 237.47 184.3C238.78 184.3 239.59 183.55 240 182Z" fill="white"/>
</svg>
